<?xml version="1.0" standalone="no"?>
<!DOCTYPE svg PUBLIC "-//W3C//DTD SVG 20010904//EN"
 "http://www.w3.org/TR/2001/REC-SVG-20010904/DTD/svg10.dtd">
<svg version="1.0" xmlns="http://www.w3.org/2000/svg"
 width="700.000000pt" height="700.000000pt" viewBox="0 0 700.000000 700.000000"
 preserveAspectRatio="xMidYMid meet">
<metadata>
Created by potrace 1.11, written by Peter Selinger 2001-2013
</metadata>
<g transform="translate(0.000000,700.000000) scale(0.100000,-0.100000)"
fill="#000000" stroke="none">
<path d="M3377 6403 c-1 -1 -40 -4 -87 -7 -47 -3 -101 -8 -120 -10 -19 -3 -53
-7 -75 -10 -74 -9 -119 -17 -210 -38 -142 -31 -127 -27 -240 -62 -49 -15 -99
-31 -110 -35 -11 -5 -58 -24 -105 -41 -298 -114 -600 -301 -864 -534 -73 -64
-201 -194 -257 -261 -19 -22 -40 -46 -47 -54 -55 -58 -220 -298 -294 -426 -35
-61 -99 -191 -139 -280 -46 -105 -137 -380 -155 -470 -6 -29 -11 -54 -22 -105
-6 -25 -13 -65 -17 -90 -3 -25 -9 -61 -12 -80 -10 -67 -12 -86 -19 -195 -11
-171 -5 -508 10 -534 2 -3 6 -33 10 -66 7 -65 10 -83 32 -195 57 -286 187
-626 326 -855 10 -16 21 -37 25 -45 15 -36 152 -233 222 -320 76 -96 306 -333
393 -406 133 -111 182 -146 335 -243 270 -170 548 -288 863 -364 58 -14 125
-29 150 -32 24 -4 47 -8 51 -10 3 -2 31 -7 63 -10 31 -4 67 -8 79 -11 110 -21
597 -21 677 1 8 2 38 6 65 9 28 3 61 8 75 11 14 3 41 8 60 11 19 3 51 9 70 14
19 5 46 11 60 13 86 16 343 101 482 161 178 76 320 155 490 272 513 351 900
858 1100 1439 51 148 96 313 111 410 3 17 10 59 16 95 25 161 33 253 34 430 0
126 -8 289 -19 370 -34 246 -96 499 -164 670 -49 123 -66 162 -108 250 -281
581 -770 1068 -1356 1349 -221 106 -539 209 -726 236 -24 4 -47 8 -50 10 -3 1
-30 6 -60 9 -30 4 -66 8 -80 11 -70 12 -455 27 -463 18z"/>
</g>
</svg>
